<svg width="529" height="508" viewBox="0 0 529 508" xmlns="http://www.w3.org/2000/svg"><g id="Page-1" stroke="none" stroke-width="1" fill="none" fill-rule="evenodd"><g id="Group" fill="#FFF"><path id="Rectangle" d="M21 126h4v4h-4zm-21 0h4v4H0zm42 0h4v4h-4zM0 105h4v4H0zm21 0h4v4h-4zm21 0h4v4h-4zM21 84h4v4h-4zM0 84h4v4H0zm42 0h4v4h-4zm42 42h4v4h-4zm-21 0h4v4h-4zm42 0h4v4h-4zm-42-21h4v4h-4zm21 0h4v4h-4zm21 0h4v4h-4zM84 84h4v4h-4zm-21 0h4v4h-4zm42 0h4v4h-4zM0 63h4v4H0zm21 0h4v4h-4zm21 0h4v4h-4zM21 42h4v4h-4zM0 42h4v4H0zm42 0h4v4h-4zM0 21h4v4H0zm21 0h4v4h-4zm21 0h4v4h-4zM21 0h4v4h-4zM0 0h4v4H0zm42 0h4v4h-4zm21 63h4v4h-4zm21 0h4v4h-4zm21 0h4v4h-4zM84 42h4v4h-4zm-21 0h4v4h-4zm42 0h4v4h-4zM63 21h4v4h-4zm21 0h4v4h-4zm21 0h4v4h-4zM84 0h4v4h-4zM63 0h4v4h-4zm42 0h4v4h-4zm42 126h4v4h-4zm-21 0h4v4h-4zm42 0h4v4h-4zm-42-21h4v4h-4zm21 0h4v4h-4zm21 0h4v4h-4zm-21-21h4v4h-4zm-21 0h4v4h-4zm42 0h4v4h-4zm42 42h4v4h-4zm-21 0h4v4h-4zm42 0h4v4h-4zm-42-21h4v4h-4zm21 0h4v4h-4zm21 0h4v4h-4zm-21-21h4v4h-4zm-21 0h4v4h-4zm42 0h4v4h-4zM126 63h4v4h-4zm21 0h4v4h-4zm21 0h4v4h-4zm-21-21h4v4h-4zm-21 0h4v4h-4zm42 0h4v4h-4zm-42-21h4v4h-4zm21 0h4v4h-4zm21 0h4v4h-4zM147 0h4v4h-4zm-21 0h4v4h-4zm42 0h4v4h-4zm21 63h4v4h-4zm21 0h4v4h-4zm21 0h4v4h-4zm-21-21h4v4h-4zm-21 0h4v4h-4zm42 0h4v4h-4zm-42-21h4v4h-4zm21 0h4v4h-4zm21 0h4v4h-4zM210 0h4v4h-4zm-21 0h4v4h-4zm42 0h4v4h-4zm42 126h4v4h-4zm-21 0h4v4h-4zm42 0h4v4h-4zm-42-21h4v4h-4zm21 0h4v4h-4zm21 0h4v4h-4zm-21-21h4v4h-4zm-21 0h4v4h-4zm42 0h4v4h-4zm42 42h4v4h-4zm-21 0h4v4h-4zm42 0h4v4h-4zm-42-21h4v4h-4zm21 0h4v4h-4zm21 0h4v4h-4zm-21-21h4v4h-4zm-21 0h4v4h-4zm42 0h4v4h-4zM252 63h4v4h-4zm21 0h4v4h-4zm21 0h4v4h-4zm-21-21h4v4h-4zm-21 0h4v4h-4zm42 0h4v4h-4zm-42-21h4v4h-4zm21 0h4v4h-4zm21 0h4v4h-4zM273 0h4v4h-4zm-21 0h4v4h-4zm42 0h4v4h-4zm21 63h4v4h-4zm21 0h4v4h-4zm21 0h4v4h-4zm-21-21h4v4h-4zm-21 0h4v4h-4zm42 0h4v4h-4zm-42-21h4v4h-4zm21 0h4v4h-4zm21 0h4v4h-4zM336 0h4v4h-4zm-21 0h4v4h-4zm42 0h4v4h-4zm42 126h4v4h-4zm-21 0h4v4h-4zm42 0h4v4h-4zm-42-21h4v4h-4zm21 0h4v4h-4zm21 0h4v4h-4zm-21-21h4v4h-4zm-21 0h4v4h-4zm42 0h4v4h-4zm42 42h4v4h-4zm-21 0h4v4h-4zm42 0h4v4h-4zm-42-21h4v4h-4zm21 0h4v4h-4zm21 0h4v4h-4zm-21-21h4v4h-4zm-21 0h4v4h-4zm42 0h4v4h-4zM378 63h4v4h-4zm21 0h4v4h-4zm21 0h4v4h-4zm-21-21h4v4h-4zm-21 0h4v4h-4zm42 0h4v4h-4zm-42-21h4v4h-4zm21 0h4v4h-4zm21 0h4v4h-4zM399 0h4v4h-4zm-21 0h4v4h-4zm42 0h4v4h-4zm21 63h4v4h-4zm21 0h4v4h-4zm21 0h4v4h-4zm-21-21h4v4h-4zm-21 0h4v4h-4zm42 0h4v4h-4zm-42-21h4v4h-4zm21 0h4v4h-4zm21 0h4v4h-4zM462 0h4v4h-4zm-21 0h4v4h-4zm42 0h4v4h-4zm21 126h4v4h-4zm0-21h4v4h-4zm0-21h4v4h-4zm0-21h4v4h-4zm0-21h4v4h-4zm0-21h4v4h-4zm0-21h4v4h-4zm21 126h4v4h-4zm0-21h4v4h-4zm0-21h4v4h-4zm0-21h4v4h-4zm0-21h4v4h-4zm0-21h4v4h-4zm0-21h4v4h-4zM21 273h4v4h-4zm-21 0h4v4H0zm42 0h4v4h-4zM0 252h4v4H0zm21 0h4v4h-4zm21 0h4v4h-4zm-21-21h4v4h-4zm-21 0h4v4H0zm42 0h4v4h-4zm42 42h4v4h-4zm-21 0h4v4h-4zm42 0h4v4h-4zm-42-21h4v4h-4zm21 0h4v4h-4zm21 0h4v4h-4zm-21-21h4v4h-4zm-21 0h4v4h-4zm42 0h4v4h-4zM0 210h4v4H0zm21 0h4v4h-4zm21 0h4v4h-4zm-21-21h4v4h-4zm-21 0h4v4H0zm42 0h4v4h-4zM0 168h4v4H0zm21 0h4v4h-4zm21 0h4v4h-4zm-21-21h4v4h-4zm-21 0h4v4H0zm42 0h4v4h-4zm21 63h4v4h-4zm21 0h4v4h-4zm21 0h4v4h-4zm-21-21h4v4h-4zm-21 0h4v4h-4zm42 0h4v4h-4zm-42-21h4v4h-4zm21 0h4v4h-4zm21 0h4v4h-4zm-21-21h4v4h-4zm-21 0h4v4h-4zm42 0h4v4h-4zm42 126h4v4h-4zm-21 0h4v4h-4zm42 0h4v4h-4zm-42-21h4v4h-4zm21 0h4v4h-4zm21 0h4v4h-4zm-21-21h4v4h-4zm-21 0h4v4h-4zm42 0h4v4h-4zm42 42h4v4h-4zm-21 0h4v4h-4zm42 0h4v4h-4zm-42-21h4v4h-4zm21 0h4v4h-4zm21 0h4v4h-4zm-21-21h4v4h-4zm-21 0h4v4h-4zm42 0h4v4h-4zm-105-21h4v4h-4zm21 0h4v4h-4zm21 0h4v4h-4zm-21-21h4v4h-4zm-21 0h4v4h-4zm42 0h4v4h-4zm-42-21h4v4h-4zm21 0h4v4h-4zm21 0h4v4h-4zm-21-21h4v4h-4zm-21 0h4v4h-4zm42 0h4v4h-4zm21 63h4v4h-4zm21 0h4v4h-4zm21 0h4v4h-4zm-21-21h4v4h-4zm-21 0h4v4h-4zm42 0h4v4h-4zm-42-21h4v4h-4zm21 0h4v4h-4zm21 0h4v4h-4zm-21-21h4v4h-4zm-21 0h4v4h-4zm42 0h4v4h-4zm42 126h4v4h-4zm-21 0h4v4h-4zm42 0h4v4h-4zm-42-21h4v4h-4zm21 0h4v4h-4zm21 0h4v4h-4zm-21-21h4v4h-4zm-21 0h4v4h-4zm42 0h4v4h-4zm42 42h4v4h-4zm-21 0h4v4h-4zm42 0h4v4h-4zm-42-21h4v4h-4zm21 0h4v4h-4zm21 0h4v4h-4zm-21-21h4v4h-4zm-21 0h4v4h-4zm42 0h4v4h-4zm-105-21h4v4h-4zm21 0h4v4h-4zm21 0h4v4h-4zm-21-21h4v4h-4zm-21 0h4v4h-4zm42 0h4v4h-4zm-42-21h4v4h-4zm21 0h4v4h-4zm21 0h4v4h-4zm-21-21h4v4h-4zm-21 0h4v4h-4zm42 0h4v4h-4zm21 63h4v4h-4zm21 0h4v4h-4zm21 0h4v4h-4zm-21-21h4v4h-4zm-21 0h4v4h-4zm42 0h4v4h-4zm-42-21h4v4h-4zm21 0h4v4h-4zm21 0h4v4h-4zm-21-21h4v4h-4zm-21 0h4v4h-4zm42 0h4v4h-4zm42 126h4v4h-4zm-21 0h4v4h-4zm42 0h4v4h-4zm-42-21h4v4h-4zm21 0h4v4h-4zm21 0h4v4h-4zm-21-21h4v4h-4zm-21 0h4v4h-4zm42 0h4v4h-4zm42 42h4v4h-4zm-21 0h4v4h-4zm42 0h4v4h-4zm-42-21h4v4h-4zm21 0h4v4h-4zm21 0h4v4h-4zm-21-21h4v4h-4zm-21 0h4v4h-4zm42 0h4v4h-4zm-105-21h4v4h-4zm21 0h4v4h-4zm21 0h4v4h-4zm-21-21h4v4h-4zm-21 0h4v4h-4zm42 0h4v4h-4zm-42-21h4v4h-4zm21 0h4v4h-4zm21 0h4v4h-4zm-21-21h4v4h-4zm-21 0h4v4h-4zm42 0h4v4h-4zm21 63h4v4h-4zm21 0h4v4h-4zm21 0h4v4h-4zm-21-21h4v4h-4zm-21 0h4v4h-4zm42 0h4v4h-4zm-42-21h4v4h-4zm21 0h4v4h-4zm21 0h4v4h-4zm-21-21h4v4h-4zm-21 0h4v4h-4zm42 0h4v4h-4zm21 126h4v4h-4zm0-21h4v4h-4zm0-21h4v4h-4zm0-21h4v4h-4zm0-21h4v4h-4zm0-21h4v4h-4zm0-21h4v4h-4zm21 126h4v4h-4zm0-21h4v4h-4zm0-21h4v4h-4zm0-21h4v4h-4zm0-21h4v4h-4zm0-21h4v4h-4zm0-21h4v4h-4zM21 420h4v4h-4zm-21 0h4v4H0zm42 0h4v4h-4zM0 399h4v4H0zm21 0h4v4h-4zm21 0h4v4h-4zm-21-21h4v4h-4zm-21 0h4v4H0zm42 0h4v4h-4zm42 42h4v4h-4zm-21 0h4v4h-4zm42 0h4v4h-4zm-42-21h4v4h-4zm21 0h4v4h-4zm21 0h4v4h-4zm-21-21h4v4h-4zm-21 0h4v4h-4zm42 0h4v4h-4zM0 357h4v4H0zm21 0h4v4h-4zm21 0h4v4h-4zm-21-21h4v4h-4zm-21 0h4v4H0zm42 0h4v4h-4zM0 315h4v4H0zm21 0h4v4h-4zm21 0h4v4h-4zm-21-21h4v4h-4zm-21 0h4v4H0zm42 0h4v4h-4zm21 63h4v4h-4zm21 0h4v4h-4zm21 0h4v4h-4zm-21-21h4v4h-4zm-21 0h4v4h-4zm42 0h4v4h-4zm-42-21h4v4h-4zm21 0h4v4h-4zm21 0h4v4h-4zm-21-21h4v4h-4zm-21 0h4v4h-4zm42 0h4v4h-4zm42 126h4v4h-4zm-21 0h4v4h-4zm42 0h4v4h-4zm-42-21h4v4h-4zm21 0h4v4h-4zm21 0h4v4h-4zm-21-21h4v4h-4zm-21 0h4v4h-4zm42 0h4v4h-4zm42 42h4v4h-4zm-21 0h4v4h-4zm42 0h4v4h-4zm-42-21h4v4h-4zm21 0h4v4h-4zm21 0h4v4h-4zm-21-21h4v4h-4zm-21 0h4v4h-4zm42 0h4v4h-4zm-105-21h4v4h-4zm21 0h4v4h-4zm21 0h4v4h-4zm-21-21h4v4h-4zm-21 0h4v4h-4zm42 0h4v4h-4zm-42-21h4v4h-4zm21 0h4v4h-4zm21 0h4v4h-4zm-21-21h4v4h-4zm-21 0h4v4h-4zm42 0h4v4h-4zm21 63h4v4h-4zm21 0h4v4h-4zm21 0h4v4h-4zm-21-21h4v4h-4zm-21 0h4v4h-4zm42 0h4v4h-4zm-42-21h4v4h-4zm21 0h4v4h-4zm21 0h4v4h-4zm-21-21h4v4h-4zm-21 0h4v4h-4zm42 0h4v4h-4zm42 126h4v4h-4zm-21 0h4v4h-4zm42 0h4v4h-4zm-42-21h4v4h-4zm21 0h4v4h-4zm21 0h4v4h-4zm-21-21h4v4h-4zm-21 0h4v4h-4zm42 0h4v4h-4zm42 42h4v4h-4zm-21 0h4v4h-4zm42 0h4v4h-4zm-42-21h4v4h-4zm21 0h4v4h-4zm21 0h4v4h-4zm-21-21h4v4h-4zm-21 0h4v4h-4zm42 0h4v4h-4zm-105-21h4v4h-4zm21 0h4v4h-4zm21 0h4v4h-4zm-21-21h4v4h-4zm-21 0h4v4h-4zm42 0h4v4h-4zm-42-21h4v4h-4zm21 0h4v4h-4zm21 0h4v4h-4zm-21-21h4v4h-4zm-21 0h4v4h-4zm42 0h4v4h-4zm21 63h4v4h-4zm21 0h4v4h-4zm21 0h4v4h-4zm-21-21h4v4h-4zm-21 0h4v4h-4zm42 0h4v4h-4zm-42-21h4v4h-4zm21 0h4v4h-4zm21 0h4v4h-4zm-21-21h4v4h-4zm-21 0h4v4h-4zm42 0h4v4h-4zm42 126h4v4h-4zm-21 0h4v4h-4zm42 0h4v4h-4zm-42-21h4v4h-4zm21 0h4v4h-4zm21 0h4v4h-4zm-21-21h4v4h-4zm-21 0h4v4h-4zm42 0h4v4h-4zm42 42h4v4h-4zm-21 0h4v4h-4zm42 0h4v4h-4zm-42-21h4v4h-4zm21 0h4v4h-4zm21 0h4v4h-4zm-21-21h4v4h-4zm-21 0h4v4h-4zm42 0h4v4h-4zm-105-21h4v4h-4zm21 0h4v4h-4zm21 0h4v4h-4zm-21-21h4v4h-4zm-21 0h4v4h-4zm42 0h4v4h-4zm-42-21h4v4h-4zm21 0h4v4h-4zm21 0h4v4h-4zm-21-21h4v4h-4zm-21 0h4v4h-4zm42 0h4v4h-4zm21 63h4v4h-4zm21 0h4v4h-4zm21 0h4v4h-4zm-21-21h4v4h-4zm-21 0h4v4h-4zm42 0h4v4h-4zm-42-21h4v4h-4zm21 0h4v4h-4zm21 0h4v4h-4zm-21-21h4v4h-4zm-21 0h4v4h-4zm42 0h4v4h-4zm21 126h4v4h-4zm0-21h4v4h-4zm0-21h4v4h-4zm0-21h4v4h-4zm0-21h4v4h-4zm0-21h4v4h-4zm0-21h4v4h-4zm21 126h4v4h-4zm0-21h4v4h-4zm0-21h4v4h-4zm0-21h4v4h-4zm0-21h4v4h-4zm0-21h4v4h-4zm0-21h4v4h-4zM0 504h4v4H0zm21 0h4v4h-4zm21 0h4v4h-4zm-21-21h4v4h-4zm-21 0h4v4H0zm42 0h4v4h-4zM0 462h4v4H0zm21 0h4v4h-4zm21 0h4v4h-4zm-21-21h4v4h-4zm-21 0h4v4H0zm42 0h4v4h-4zm21 63h4v4h-4zm21 0h4v4h-4zm21 0h4v4h-4zm-21-21h4v4h-4zm-21 0h4v4h-4zm42 0h4v4h-4zm-42-21h4v4h-4zm21 0h4v4h-4zm21 0h4v4h-4zm-21-21h4v4h-4zm-21 0h4v4h-4zm42 0h4v4h-4zm21 63h4v4h-4zm21 0h4v4h-4zm21 0h4v4h-4zm-21-21h4v4h-4zm-21 0h4v4h-4zm42 0h4v4h-4zm-42-21h4v4h-4zm21 0h4v4h-4zm21 0h4v4h-4zm-21-21h4v4h-4zm-21 0h4v4h-4zm42 0h4v4h-4zm21 63h4v4h-4zm21 0h4v4h-4zm21 0h4v4h-4zm-21-21h4v4h-4zm-21 0h4v4h-4zm42 0h4v4h-4zm-42-21h4v4h-4zm21 0h4v4h-4zm21 0h4v4h-4zm-21-21h4v4h-4zm-21 0h4v4h-4zm42 0h4v4h-4zm21 63h4v4h-4zm21 0h4v4h-4zm21 0h4v4h-4zm-21-21h4v4h-4zm-21 0h4v4h-4zm42 0h4v4h-4zm-42-21h4v4h-4zm21 0h4v4h-4zm21 0h4v4h-4zm-21-21h4v4h-4zm-21 0h4v4h-4zm42 0h4v4h-4zm21 63h4v4h-4zm21 0h4v4h-4zm21 0h4v4h-4zm-21-21h4v4h-4zm-21 0h4v4h-4zm42 0h4v4h-4zm-42-21h4v4h-4zm21 0h4v4h-4zm21 0h4v4h-4zm-21-21h4v4h-4zm-21 0h4v4h-4zm42 0h4v4h-4zm21 63h4v4h-4zm21 0h4v4h-4zm21 0h4v4h-4zm-21-21h4v4h-4zm-21 0h4v4h-4zm42 0h4v4h-4zm-42-21h4v4h-4zm21 0h4v4h-4zm21 0h4v4h-4zm-21-21h4v4h-4zm-21 0h4v4h-4zm42 0h4v4h-4zm21 63h4v4h-4zm21 0h4v4h-4zm21 0h4v4h-4zm-21-21h4v4h-4zm-21 0h4v4h-4zm42 0h4v4h-4zm-42-21h4v4h-4zm21 0h4v4h-4zm21 0h4v4h-4zm-21-21h4v4h-4zm-21 0h4v4h-4zm42 0h4v4h-4zm21 63h4v4h-4zm0-21h4v4h-4zm0-21h4v4h-4zm0-21h4v4h-4zm21 63h4v4h-4zm0-21h4v4h-4zm0-21h4v4h-4zm0-21h4v4h-4z"/></g></g></svg>